<svg xmlns="http://www.w3.org/2000/svg" width="67" height="41" fill="none" xmlns:v="https://vecta.io/nano"><path d="M45.035 4.663a12.52 12.52 0 0 1 2.593-2.194C49.224 1.472 50.908.94 52.636.94v14.471c-1.263-4.388-3.989-8.155-7.601-10.748zM66.553 40.94H15.296C6.875 40.94.071 34.115.071 25.716c0-8.044 6.249-14.648 14.161-15.202V.94c1.773 0 3.524.51 5.163 1.529.909.554 1.795 1.285 2.593 2.127A19.9 19.9 0 0 1 33.467.984c0 9.241-3.324 19.989-14.138 20.011h14.028c-.399-1.795-2.039-3.125-3.989-3.147h8.155c-1.95 0-3.59 1.352-3.989 3.169h13.075c2.615 0 5.208.51 7.645 1.529a19.97 19.97 0 0 1 6.471 4.321c1.861 1.862 3.324 4.055 4.321 6.471a19.79 19.79 0 0 1 1.507 7.601zM22.853 10.78c.332.864 1.219 1.839 2.46 2.548s2.526.997 3.435.864c-.332-.864-1.219-1.839-2.46-2.548s-2.526-.997-3.435-.864zm18.659 2.548c-1.241.709-2.526.997-3.435.864.332-.864 1.219-1.839 2.46-2.548s2.526-.997 3.435-.864c-.31.864-1.219 1.839-2.46 2.548z" fill="#283841"/></svg>